<svg width="41" height="41" fill="none" xmlns="http://www.w3.org/2000/svg"><path d="M29.641 1.446c2.145-.168 4.349.417 6.1 1.797 1.696 1.336 2.72 3.21 2.882 5.274.162 2.066-.557 4.076-2.024 5.66L14.346 38.21c-1.086 1.172-2.595 1.89-4.25 2.02-1.655.13-3.257-.344-4.512-1.332-1.255-.989-2.013-2.375-2.132-3.903-.12-1.528.411-3.015 1.497-4.187l19.231-20.77c1.452-1.569 4-1.769 5.68-.446 1.68 1.323 1.864 3.676.412 5.245l-13.53 14.61a1.168 1.168 0 01-1.553.122.963.963 0 01-.113-1.434l13.53-14.61a1.597 1.597 0 00-.187-2.376c-.761-.6-1.915-.509-2.573.202L6.615 32.12c-.7.756-1.043 1.716-.966 2.702.077.986.566 1.88 1.376 2.518 1.672 1.317 4.208 1.118 5.654-.444l22.253-24.031c1.082-1.169 1.613-2.652 1.493-4.175-.12-1.524-.874-2.905-2.126-3.89-2.583-2.036-6.502-1.728-8.736.684L8.968 23.407a1.168 1.168 0 01-1.554.122.963.963 0 01-.112-1.434L23.897 4.172c1.514-1.635 3.6-2.557 5.744-2.726z" fill="#EF2B00"/><path d="M7.302 22.094a.963.963 0 00.112 1.434c.46.363 1.156.308 1.554-.122L25.563 5.485c1.36-1.47 3.346-2.157 5.275-2.01a8.788 8.788 0 011.165-.168 8.89 8.89 0 014.826.971 8.027 8.027 0 00-1.089-1.035c-1.75-1.38-3.954-1.965-6.099-1.797-2.144.169-4.23 1.09-5.744 2.726L7.302 22.094z" fill="#EF2B00"/></svg>