<svg id="Capa_1" height="512" width="512" xmlns="http://www.w3.org/2000/svg"><path d="M126.585 512c-27.384 0-54.767-10.424-75.614-31.27-20.198-20.198-31.321-47.052-31.321-75.614 0-28.563 11.123-55.417 31.321-75.615L357.3 23.172C372.242 8.229 392.108 0 413.24 0c21.131 0 40.998 8.229 55.94 23.172 14.942 14.942 23.171 34.808 23.171 55.94 0 21.131-8.229 40.998-23.171 55.94l-264.741 264.74c-19.997 19.996-52.533 19.996-72.531 0-19.997-19.997-19.997-52.533 0-72.531l186.24-186.24c5.478-5.478 14.361-5.478 19.84 0s5.479 14.361 0 19.84L151.747 347.1c-9.057 9.058-9.057 23.794 0 32.852 9.058 9.058 23.794 9.058 32.852 0l264.741-264.74c9.643-9.643 14.953-22.464 14.953-36.1 0-13.637-5.31-26.458-14.953-36.1-19.906-19.906-52.295-19.906-72.201 0L70.81 349.34c-14.898 14.898-23.103 34.706-23.103 55.775 0 21.07 8.205 40.877 23.103 55.775 30.755 30.754 80.796 30.753 111.549.001l228.446-228.447c5.478-5.478 14.361-5.478 19.84 0s5.479 14.361 0 19.84L202.199 480.73C181.352 501.576 153.968 512 126.585 512z" fill="#5a5a5a"/><path d="M430.645 252.283c5.479-5.478 5.479-14.362 0-19.84-5.478-5.478-14.361-5.478-19.84 0L182.36 460.89c-18.731 18.731-44.614 26.031-68.94 21.944a107.753 107.753 0 01-14.955 1.046c-21.091 0-42.178-6.19-60.282-18.557a108.191 108.191 0 0012.787 15.406C71.818 501.576 99.201 512 126.584 512c27.384 0 54.768-10.424 75.615-31.27z" fill="#444"/></svg>