<svg width="26" height="26" fill="none" xmlns="http://www.w3.org/2000/svg"><path d="M13.25 2.525c-5.522 0-10 4.478-10 10 0 4.686 3.227 8.607 7.577 9.692a1.458 1.458 0 01-.077-.486v-1.709H9.493c-.684 0-1.292-.294-1.587-.84-.328-.608-.384-1.537-1.196-2.106-.24-.189-.058-.405.22-.375.513.145.938.496 1.338 1.018.398.522.585.64 1.33.64.36 0 .9-.02 1.409-.1.273-.694.745-1.334 1.323-1.635-3.33-.343-4.92-2-4.92-4.248 0-.969.413-1.905 1.114-2.695-.23-.783-.519-2.38.089-2.989 1.498 0 2.404.972 2.621 1.234a7.493 7.493 0 012.428-.4 7.49 7.49 0 012.435.402c.215-.26 1.122-1.236 2.624-1.236.61.61.317 2.213.085 2.995.697.788 1.107 1.722 1.107 2.689 0 2.247-1.587 3.903-4.912 4.247.915.477 1.582 1.82 1.582 2.83v2.278c0 .087-.019.15-.029.224 3.897-1.366 6.696-5.066 6.696-9.43 0-5.522-4.477-10-10-10z" fill="#fff"/></svg>