<svg width="26" height="26" fill="none" xmlns="http://www.w3.org/2000/svg"><g clip-path="url(#clip0)"><path d="M25.363 2.572c-.305-.373-.762-.579-1.287-.579-.286 0-.589.06-.9.179L2.015 10.25C.89 10.68.74 11.322.75 11.667c.01.345.197.979 1.343 1.344a.79.79 0 00.02.006l4.39 1.256 2.374 6.788c.323.925 1.05 1.5 1.896 1.5.534 0 1.058-.223 1.518-.646l2.715-2.5 3.938 3.171.001.001.038.03a.961.961 0 00.01.008c.438.34.916.52 1.382.52.912 0 1.638-.676 1.85-1.72l3.467-17.121c.14-.687.023-1.302-.329-1.732zM7.971 14.034l8.47-4.326-5.274 5.603a.731.731 0 00-.178.326l-1.017 4.119-2-5.722zm3.327 6.803a1.36 1.36 0 01-.105.088l.943-3.82 1.716 1.381-2.554 2.351zM24.257 4.013l-3.468 17.121c-.033.164-.14.545-.414.545-.135 0-.305-.073-.48-.207l-4.462-3.594a.01.01 0 00-.002-.001l-2.655-2.138L20.4 7.636a.732.732 0 00-.866-1.154L6.993 12.889l-4.45-1.273L23.7 3.54c.179-.068.303-.082.377-.082.044 0 .124.005.154.042.038.047.088.21.027.513z" fill="#fff"/></g><defs><clipPath id="clip0"><path fill="#fff" transform="translate(.75 .089)" d="M0 0h25v25H0z"/></clipPath></defs></svg>