<svg width="26" height="26" fill="none" xmlns="http://www.w3.org/2000/svg"><g clip-path="url(#clip0)"><path d="M25.364 2.509c-.306-.374-.763-.58-1.288-.58-.286 0-.588.06-.9.18l-21.16 8.078C.892 10.616.74 11.259.75 11.604c.01.345.197.979 1.343 1.343a.79.79 0 00.02.006l4.39 1.257 2.374 6.788c.324.925 1.05 1.5 1.896 1.5.534 0 1.058-.224 1.518-.646l2.715-2.5 3.938 3.17.001.002.038.03.01.008c.438.34.916.519 1.382.52.912 0 1.639-.676 1.85-1.72L25.692 4.24c.14-.688.023-1.303-.328-1.732zM7.97 13.97l8.47-4.327-5.274 5.604a.73.73 0 00-.178.326l-1.017 4.119-2-5.722zm3.327 6.803a1.39 1.39 0 01-.105.088l.943-3.821 1.716 1.382-2.554 2.351zM24.257 3.95l-3.468 17.12c-.033.164-.14.545-.414.545-.135 0-.305-.074-.48-.208l-4.462-3.593-.002-.001-2.655-2.139 7.626-8.103a.732.732 0 00-.867-1.154L6.993 12.826l-4.45-1.273L23.7 3.477c.179-.068.303-.082.377-.082.044 0 .124.005.154.041.039.048.088.21.027.514z" fill="#EF2B00"/></g><defs><clipPath id="clip0"><path fill="#fff" transform="translate(.75 .025)" d="M0 0h25v25H0z"/></clipPath></defs></svg>