<svg width="41" height="41" viewBox="0 0 41 41" fill="none" xmlns="http://www.w3.org/2000/svg">
<path d="M29.6413 1.4463C31.7859 1.27802 33.9896 1.86346 35.7405 3.24263C37.437 4.57894 38.4604 6.45228 38.6225 8.51748C38.7845 10.5827 38.0658 12.5928 36.5985 14.1773L14.3457 38.2091C13.2603 39.3814 11.7512 40.0984 10.0962 40.2283C8.44125 40.3582 6.83864 39.8852 5.58365 38.8966C4.32866 37.908 3.57149 36.5222 3.45159 34.9942C3.33171 33.4663 3.86346 31.9793 4.9489 30.807L24.1806 10.038C25.6332 8.46928 28.1814 8.26934 29.861 9.59228C31.5405 10.9153 31.7251 13.2678 30.2725 14.8367L16.7434 29.4473C16.3454 29.8771 15.6498 29.9317 15.1896 29.5693C14.7294 29.2068 14.679 28.5645 15.077 28.1347L28.6062 13.5241C29.2641 12.8135 29.1805 11.748 28.4198 11.1487C27.659 10.5495 26.505 10.64 25.847 11.3506L6.61527 32.1197C5.91477 32.8762 5.57165 33.8358 5.64901 34.8218C5.72638 35.8078 6.21498 36.7022 7.02489 37.3401C8.6968 38.6571 11.2334 38.4581 12.6794 36.8964L34.9322 12.8648C36.0145 11.696 36.5447 10.2134 36.4252 8.68996C36.3056 7.16649 35.5506 5.78475 34.2994 4.79909C31.7162 2.7644 27.7972 3.07198 25.5632 5.4845L8.9681 23.4063C8.57016 23.8361 7.87447 23.8907 7.41429 23.5283C6.95411 23.1658 6.90371 22.5235 7.30173 22.0937L23.8968 4.17195C25.4112 2.53656 27.4967 1.61457 29.6413 1.4463Z" fill="#EF2B00"/>
<path d="M7.30156 22.0937C6.90354 22.5235 6.95395 23.1659 7.41412 23.5283C7.87422 23.8907 8.56991 23.8361 8.96793 23.4064L25.5629 5.48453C26.9236 4.01507 28.9093 3.32818 30.8376 3.47421C31.222 3.39348 31.6114 3.33739 32.0029 3.30667C33.6547 3.17707 35.3413 3.49506 36.8293 4.27801C36.5055 3.90597 36.1421 3.5591 35.7404 3.24264C33.9894 1.8634 31.7857 1.27796 29.6412 1.44624C27.4965 1.61452 25.4111 2.53651 23.8966 4.1719L7.30156 22.0937Z" fill="#EF2B00"/>
</svg>
