<svg width="45" height="45" viewBox="0 0 45 45" fill="none" xmlns="http://www.w3.org/2000/svg">
<rect x="0.0161133" y="0.251801" width="44" height="44" rx="22" fill="#3137C9"/>
<g clip-path="url(#clip0)">
<path d="M31.664 22.2L15.8786 14.9145C15.6273 14.8003 15.3274 14.8683 15.1525 15.0844C14.9764 15.3006 14.9704 15.6078 15.1379 15.83L20.3289 22.7513L15.1379 29.6725C14.9704 29.8947 14.9764 30.2031 15.1513 30.4181C15.2691 30.565 15.4452 30.6439 15.6236 30.6439C15.7099 30.6439 15.7961 30.6257 15.8774 30.5881L31.6628 23.3025C31.8789 23.203 32.0161 22.988 32.0161 22.7513C32.0161 22.5145 31.8789 22.2996 31.664 22.2Z" fill="white"/>
</g>
<defs>
<clipPath id="clip0">
<rect width="17" height="17" fill="white" transform="translate(15.0161 14.2518)"/>
</clipPath>
</defs>
</svg>
