<svg width="26" height="26" viewBox="0 0 26 26" fill="none" xmlns="http://www.w3.org/2000/svg">
<path d="M13.25 2.52548C7.7275 2.52548 3.25 7.00298 3.25 12.5255C3.25 17.2113 6.47667 21.1321 10.8267 22.2171C10.78 22.0821 10.75 21.9255 10.75 21.7313V20.0221C10.3442 20.0221 9.66417 20.0221 9.49333 20.0221C8.80917 20.0221 8.20083 19.728 7.90583 19.1813C7.57833 18.5738 7.52167 17.6446 6.71 17.0763C6.46917 16.8871 6.6525 16.6713 6.93 16.7005C7.4425 16.8455 7.8675 17.1971 8.2675 17.7188C8.66583 18.2413 8.85333 18.3596 9.5975 18.3596C9.95833 18.3596 10.4983 18.3388 11.0067 18.2588C11.28 17.5646 11.7525 16.9255 12.33 16.6238C9 16.2813 7.41083 14.6246 7.41083 12.3755C7.41083 11.4071 7.82333 10.4705 8.52417 9.68132C8.29417 8.89798 8.005 7.30048 8.6125 6.69215C10.1108 6.69215 11.0167 7.66382 11.2342 7.92632C11.9808 7.67048 12.8008 7.52548 13.6625 7.52548C14.5258 7.52548 15.3492 7.67048 16.0975 7.92798C16.3125 7.66715 17.2192 6.69215 18.7208 6.69215C19.3308 7.30132 19.0383 8.90548 18.8058 9.68715C19.5025 10.4746 19.9125 11.4088 19.9125 12.3755C19.9125 14.623 18.3258 16.2788 15.0008 16.623C15.9158 17.1005 16.5833 18.4421 16.5833 19.453V21.7313C16.5833 21.818 16.5642 21.8805 16.5542 21.9546C20.4508 20.5888 23.25 16.8888 23.25 12.5255C23.25 7.00298 18.7725 2.52548 13.25 2.52548Z" fill="white"/>
</svg>
