<svg width="26" height="26" viewBox="0 0 26 26" fill="none" xmlns="http://www.w3.org/2000/svg">
<g clip-path="url(#clip0)">
<path d="M22.9062 4.05957H22.125H3.375H2.59375C1.3 4.05957 0.25 5.10957 0.25 6.40332V7.18457V19.6846V20.4658C0.25 21.7596 1.3 22.8096 2.59375 22.8096H3.375H22.125H22.9062C24.2 22.8096 25.25 21.7596 25.25 20.4658V19.6846V7.18457V6.40332C25.25 5.10957 24.2 4.05957 22.9062 4.05957ZM20.1469 5.62207L12.75 11.4627L5.35313 5.62207H20.1469ZM22.125 21.2471H3.375V8.19394L12.75 15.4049L22.125 8.19238V21.2471Z" fill="white"/>
</g>
<defs>
<clipPath id="clip0">
<rect width="25" height="25" fill="white" transform="translate(0.25 0.93457)"/>
</clipPath>
</defs>
</svg>
