<svg width="26" height="26" viewBox="0 0 26 26" fill="none" xmlns="http://www.w3.org/2000/svg">
<g clip-path="url(#clip0)">
<path d="M25.3635 2.57211C25.0581 2.19865 24.6008 1.99304 24.0755 1.99304C23.7899 1.99304 23.4874 2.05312 23.1765 2.17195L2.0145 10.2501C0.891458 10.6787 0.740205 11.3219 0.749932 11.6671C0.75966 12.0123 0.947152 12.646 2.09271 13.0105C2.09957 13.0126 2.10644 13.0147 2.11331 13.0166L6.50288 14.2727L8.87676 21.061C9.20044 21.9864 9.92695 22.5613 10.7731 22.5613C11.3065 22.5613 11.8312 22.3378 12.2905 21.9151L15.0056 19.4151L18.9438 22.5861C18.9441 22.5865 18.9447 22.5867 18.9451 22.5871L18.9825 22.6172C18.9859 22.6199 18.9895 22.6227 18.993 22.6254C19.4307 22.9649 19.9085 23.1442 20.3752 23.1444H20.3754C21.2873 23.1444 22.0134 22.4694 22.225 21.4249L25.6923 4.30379C25.8316 3.61658 25.7148 3.00165 25.3635 2.57211ZM7.97135 14.0341L16.4402 9.7077L11.1669 15.3109C11.0805 15.4027 11.0193 15.515 10.9892 15.6373L9.97235 19.756L7.97135 14.0341ZM11.2981 20.8375C11.263 20.8697 11.2278 20.8985 11.1925 20.925L12.1359 17.1042L13.8519 18.4861L11.2981 20.8375ZM24.2567 4.01292L20.7893 21.1342C20.7559 21.2981 20.6493 21.6794 20.3752 21.6794C20.2398 21.6794 20.0697 21.6055 19.8955 21.4715L15.4331 17.8784C15.4325 17.8778 15.4317 17.8773 15.431 17.8769L12.7758 15.7387L20.4015 7.63574C20.6457 7.37634 20.6678 6.97904 20.454 6.69408C20.24 6.40913 19.8522 6.31948 19.535 6.48161L6.99268 12.8892L2.54341 11.6162L23.699 3.54047C23.8777 3.47219 24.0024 3.45789 24.0755 3.45789C24.1203 3.45789 24.2 3.46323 24.2296 3.49966C24.2685 3.54715 24.3181 3.70908 24.2567 4.01292Z" fill="white"/>
</g>
<defs>
<clipPath id="clip0">
<rect width="25" height="25" fill="white" transform="translate(0.75 0.0887451)"/>
</clipPath>
</defs>
</svg>
